<svg width="33" height="33" viewBox="0 0 33 33" fill="none" xmlns="http://www.w3.org/2000/svg">
<g clip-path="url(#clip0_1965_1113)">
<path d="M15.0089 23.7113C15.6445 23.3277 16.4403 23.3277 17.0759 23.7113L20.2462 25.6248C21.7608 26.5389 23.6293 25.181 23.2274 23.4581L22.386 19.8515C22.2173 19.1285 22.463 18.3716 23.0242 17.8855L25.8282 15.4563C27.1654 14.2979 26.4506 12.1014 24.6877 11.9518L21.0007 11.639C20.2616 11.5763 19.6178 11.1096 19.3283 10.4266L17.8838 7.01844C17.1947 5.39239 14.8901 5.39239 14.201 7.01844L12.7565 10.4266C12.467 11.1096 11.8233 11.5763 11.0841 11.639L7.39709 11.9518C5.63423 12.1014 4.91942 14.2979 6.25662 15.4563L9.06066 17.8855C9.62179 18.3716 9.86749 19.1285 9.69882 19.8515L8.85745 23.4581C8.45553 25.181 10.324 26.5389 11.8386 25.6248L15.0089 23.7113Z" fill="#F8A401"/>
</g>
<defs>
<clipPath id="clip0_1965_1113">
<rect width="32.0846" height="32.0846" fill="white"/>
</clipPath>
</defs>
</svg>
