<svg width="20" height="20" viewBox="0 0 20 20" fill="none" xmlns="http://www.w3.org/2000/svg">
<path d="M8.99999 18.3333C7.84721 18.3333 6.76388 18.1144 5.74999 17.6767C4.7361 17.2389 3.85416 16.6453 3.10416 15.8958C2.35416 15.1458 1.76055 14.2639 1.32332 13.25C0.886101 12.2361 0.667212 11.1528 0.666656 9.99999C0.666656 8.84721 0.885545 7.76388 1.32332 6.74999C1.7611 5.7361 2.35471 4.85416 3.10416 4.10416C3.85416 3.35416 4.7361 2.76055 5.74999 2.32332C6.76388 1.8861 7.84721 1.66721 8.99999 1.66666C10.1528 1.66666 11.2361 1.88555 12.25 2.32332C13.2639 2.7611 14.1458 3.35471 14.8958 4.10416C15.6458 4.85416 16.2397 5.7361 16.6775 6.74999C17.1153 7.76388 17.3339 8.84721 17.3333 9.99999C17.3333 11.1528 17.1144 12.2361 16.6767 13.25C16.2389 14.2639 15.6453 15.1458 14.8958 15.8958C14.1458 16.6458 13.2639 17.2397 12.25 17.6775C11.2361 18.1153 10.1528 18.3339 8.99999 18.3333ZM8.99999 16.6667C9.77777 16.6667 10.5105 16.545 11.1983 16.3017C11.8861 16.0583 12.5144 15.7147 13.0833 15.2708L11.8958 14.0833C11.493 14.375 11.0453 14.6008 10.5525 14.7608C10.0597 14.9208 9.54221 15.0005 8.99999 15C7.6111 15 6.43055 14.5139 5.45832 13.5417C4.4861 12.5694 3.99999 11.3889 3.99999 9.99999C3.99999 8.6111 4.4861 7.43055 5.45832 6.45832C6.43055 5.4861 7.6111 4.99999 8.99999 4.99999C10.3889 4.99999 11.5694 5.4861 12.5417 6.45832C13.5139 7.43055 14 8.6111 14 9.99999C14 10.5417 13.9167 11.0625 13.75 11.5625C13.5833 12.0625 13.3542 12.5139 13.0625 12.9167L14.25 14.1042C14.6944 13.5347 15.0417 12.9028 15.2917 12.2083C15.5417 11.5139 15.6667 10.7778 15.6667 9.99999C15.6667 8.13888 15.0208 6.56249 13.7292 5.27082C12.4375 3.97916 10.8611 3.33332 8.99999 3.33332C7.13888 3.33332 5.56249 3.97916 4.27082 5.27082C2.97916 6.56249 2.33332 8.13888 2.33332 9.99999C2.33332 11.8611 2.97916 13.4375 4.27082 14.7292C5.56249 16.0208 7.13888 16.6667 8.99999 16.6667ZM8.99999 13.3333C9.30554 13.3333 9.60082 13.295 9.88582 13.2183C10.1708 13.1417 10.438 13.0272 10.6875 12.875L9.41666 11.6042C9.34721 11.6319 9.27777 11.6494 9.20832 11.6567C9.13888 11.6639 9.06943 11.6672 8.99999 11.6667C8.54166 11.6667 8.14916 11.5033 7.82249 11.1767C7.49582 10.85 7.33277 10.4578 7.33332 9.99999C7.33332 9.54166 7.49666 9.14916 7.82332 8.82249C8.14999 8.49582 8.54221 8.33277 8.99999 8.33332C9.45832 8.33332 9.85082 8.49666 10.1775 8.82332C10.5042 9.14999 10.6672 9.54221 10.6667 9.99999C10.6667 10.0833 10.663 10.1633 10.6558 10.24C10.6486 10.3167 10.6314 10.3894 10.6042 10.4583L11.8542 11.7083C12.0069 11.4583 12.125 11.1908 12.2083 10.9058C12.2917 10.6208 12.3333 10.3189 12.3333 9.99999C12.3333 9.08332 12.0069 8.2986 11.3542 7.64582C10.7014 6.99305 9.91666 6.66666 8.99999 6.66666C8.08332 6.66666 7.2986 6.99305 6.64582 7.64582C5.99305 8.2986 5.66666 9.08332 5.66666 9.99999C5.66666 10.9167 5.99305 11.7014 6.64582 12.3542C7.2986 13.0069 8.08332 13.3333 8.99999 13.3333Z" fill="#F8A401"/>
</svg>
