<svg width="18" height="18" viewBox="0 0 22 22" fill="none" xmlns="http://www.w3.org/2000/svg">
<path d="M11 20.9999C12.3135 21.0016 13.6143 20.7438 14.8278 20.2411C16.0413 19.7384 17.1435 19.0009 18.071 18.0709C19.001 17.1434 19.7385 16.0412 20.2412 14.8278C20.7438 13.6143 21.0017 12.3134 21 10.9999C21.0017 9.68648 20.7438 8.38564 20.2411 7.17216C19.7385 5.95868 19.001 4.8565 18.071 3.92895C17.1435 2.99896 16.0413 2.26145 14.8278 1.75879C13.6143 1.25613 12.3135 0.998245 11 0.999947C9.68655 0.998273 8.3857 1.25617 7.17222 1.75883C5.95875 2.26148 4.85656 2.99898 3.92901 3.92895C2.99904 4.8565 2.26154 5.95868 1.75889 7.17216C1.25623 8.38564 0.998334 9.68648 1.00001 10.9999C0.998307 12.3134 1.25619 13.6143 1.75885 14.8278C2.26151 16.0412 2.99902 17.1434 3.92901 18.0709C4.85656 19.0009 5.95875 19.7384 7.17222 20.2411C8.3857 20.7437 9.68655 21.0016 11 20.9999Z" stroke="#0E0E0E" stroke-width="2" stroke-linejoin="round"/>
<path d="M11 13.3124V11.3124C11.5933 11.3124 12.1734 11.1364 12.6667 10.8068C13.1601 10.4771 13.5446 10.0086 13.7716 9.46043C13.9987 8.91225 14.0581 8.30905 13.9424 7.72711C13.8266 7.14517 13.5409 6.61062 13.1213 6.19106C12.7018 5.7715 12.1672 5.48578 11.5853 5.37002C11.0033 5.25427 10.4001 5.31368 9.85195 5.54074C9.30377 5.7678 8.83524 6.15232 8.50559 6.64567C8.17595 7.13902 8 7.71904 8 8.31238" stroke="#0E0E0E" stroke-width="2" stroke-linecap="round" stroke-linejoin="round"/>
<path fill-rule="evenodd" clip-rule="evenodd" d="M11 17.8124C11.3315 17.8124 11.6495 17.6807 11.8839 17.4463C12.1183 17.2119 12.25 16.894 12.25 16.5624C12.25 16.2309 12.1183 15.913 11.8839 15.6786C11.6495 15.4441 11.3315 15.3124 11 15.3124C10.6685 15.3124 10.3505 15.4441 10.1161 15.6786C9.8817 15.913 9.75 16.2309 9.75 16.5624C9.75 16.894 9.8817 17.2119 10.1161 17.4463C10.3505 17.6807 10.6685 17.8124 11 17.8124Z" fill="#0E0E0E"/>
</svg>
