<svg height="56" viewBox="0 0 976 56" fill="none" xmlns="http://www.w3.org/2000/svg">
<rect width="976" height="56" rx="10" fill="#F4F4F4"/>
<circle cx="270.5" cy="28" r="9" stroke="#888888"/>
<path d="M271 23.5C271 23.7761 270.776 24 270.5 24C270.224 24 270 23.7761 270 23.5C270 23.2239 270.224 23 270.5 23C270.776 23 271 23.2239 271 23.5Z" fill="#888888"/>
<path d="M270.5 33V26" stroke="#888888"/>
<path d="M296.541 32.154C297.983 32.154 299.313 31.552 300.125 30.544C300.307 30.306 300.377 30.138 300.377 29.956C300.377 29.592 300.069 29.284 299.691 29.284C299.453 29.284 299.257 29.382 299.089 29.578C298.417 30.376 297.563 30.796 296.555 30.796C294.637 30.796 293.223 29.34 293.223 27.38C293.223 25.42 294.637 23.964 296.555 23.964C297.577 23.964 298.431 24.37 299.103 25.182C299.271 25.378 299.467 25.476 299.691 25.476C300.069 25.476 300.377 25.168 300.377 24.804C300.377 24.608 300.307 24.44 300.139 24.216C299.299 23.208 297.969 22.606 296.541 22.606C293.811 22.606 291.683 24.692 291.683 27.38C291.683 30.068 293.811 32.154 296.541 32.154ZM305.554 25.056C304.784 25.056 304.098 25.392 303.636 25.938V25.728C303.636 25.294 303.328 24.972 302.922 24.972C302.488 24.972 302.18 25.294 302.18 25.728V31.398C302.18 31.832 302.502 32.154 302.922 32.154C303.342 32.154 303.65 31.846 303.65 31.398V28.332C303.65 27.226 304.42 26.47 305.54 26.442C305.96 26.414 306.254 26.134 306.254 25.728C306.254 25.336 305.96 25.056 305.554 25.056ZM310.401 24.972C308.399 24.972 306.859 26.54 306.859 28.57C306.859 30.628 308.427 32.154 310.555 32.154C311.409 32.154 312.179 31.902 312.837 31.412C313.103 31.216 313.201 31.048 313.201 30.796C313.201 30.446 312.935 30.18 312.585 30.18C312.459 30.18 312.333 30.236 312.207 30.32C311.745 30.67 311.185 30.852 310.597 30.852C309.379 30.852 308.553 30.152 308.357 29.046H312.753C313.271 29.046 313.593 28.738 313.593 28.234V28.164C313.593 26.316 312.235 24.972 310.401 24.972ZM310.359 26.218C311.395 26.218 312.095 26.904 312.123 27.898H308.385C308.609 26.89 309.365 26.218 310.359 26.218ZM317.91 24.972C316.902 24.972 315.992 25.322 315.404 25.938C315.208 26.134 315.11 26.33 315.11 26.54C315.11 26.862 315.404 27.156 315.754 27.156C315.922 27.156 316.076 27.086 316.258 26.932C316.692 26.498 317.21 26.288 317.784 26.288C318.722 26.288 319.254 26.82 319.254 27.758V28.206H317.308C315.754 28.206 314.774 28.962 314.774 30.166C314.774 31.356 315.74 32.154 317.168 32.154C318.05 32.154 318.778 31.86 319.282 31.328V31.412C319.282 31.832 319.59 32.154 320.01 32.154C320.43 32.154 320.738 31.846 320.738 31.412V27.842C320.738 26.036 319.688 24.972 317.91 24.972ZM317.476 31.02C316.748 31.02 316.272 30.67 316.272 30.11C316.272 29.564 316.692 29.27 317.49 29.27H319.254V29.396C319.254 30.306 318.47 31.02 317.476 31.02ZM326.368 30.81C326.242 30.81 326.116 30.824 325.948 30.824C325.01 30.824 324.604 30.474 324.604 29.634V26.4H326.074C326.452 26.4 326.732 26.134 326.732 25.77C326.732 25.406 326.452 25.126 326.074 25.126H324.604V23.922C324.604 23.488 324.282 23.166 323.862 23.166C323.442 23.166 323.12 23.502 323.12 23.922V25.126H322.574C322.21 25.126 321.916 25.406 321.916 25.77C321.916 26.134 322.21 26.4 322.574 26.4H323.12V29.76C323.12 31.314 324.016 32.154 325.654 32.154C326.046 32.154 326.34 32.112 326.578 32.014C326.858 31.916 327.012 31.706 327.012 31.398C327.012 31.048 326.76 30.81 326.368 30.81ZM331.333 24.972C329.331 24.972 327.791 26.54 327.791 28.57C327.791 30.628 329.359 32.154 331.487 32.154C332.341 32.154 333.111 31.902 333.769 31.412C334.035 31.216 334.133 31.048 334.133 30.796C334.133 30.446 333.867 30.18 333.517 30.18C333.391 30.18 333.265 30.236 333.139 30.32C332.677 30.67 332.117 30.852 331.529 30.852C330.311 30.852 329.485 30.152 329.289 29.046H333.685C334.203 29.046 334.525 28.738 334.525 28.234V28.164C334.525 26.316 333.167 24.972 331.333 24.972ZM331.291 26.218C332.327 26.218 333.027 26.904 333.055 27.898H329.317C329.541 26.89 330.297 26.218 331.291 26.218ZM342.765 24.972C341.757 24.972 340.847 25.322 340.259 25.938C340.063 26.134 339.965 26.33 339.965 26.54C339.965 26.862 340.259 27.156 340.609 27.156C340.777 27.156 340.931 27.086 341.113 26.932C341.547 26.498 342.065 26.288 342.639 26.288C343.577 26.288 344.109 26.82 344.109 27.758V28.206H342.163C340.609 28.206 339.629 28.962 339.629 30.166C339.629 31.356 340.595 32.154 342.023 32.154C342.905 32.154 343.633 31.86 344.137 31.328V31.412C344.137 31.832 344.445 32.154 344.865 32.154C345.285 32.154 345.593 31.846 345.593 31.412V27.842C345.593 26.036 344.543 24.972 342.765 24.972ZM342.331 31.02C341.603 31.02 341.127 30.67 341.127 30.11C341.127 29.564 341.547 29.27 342.345 29.27H344.109V29.396C344.109 30.306 343.325 31.02 342.331 31.02ZM351.069 24.972C350.271 24.972 349.585 25.252 349.095 25.728C349.095 25.294 348.787 24.972 348.381 24.972C347.947 24.972 347.639 25.294 347.639 25.728V31.398C347.639 31.832 347.961 32.154 348.381 32.154C348.801 32.154 349.109 31.846 349.109 31.398V27.898C349.109 26.974 349.767 26.302 350.677 26.302C351.573 26.302 352.175 26.946 352.175 27.898V31.398C352.175 31.832 352.483 32.154 352.917 32.154C353.323 32.154 353.645 31.846 353.645 31.398V27.702C353.645 26.036 352.637 24.972 351.069 24.972ZM362.248 24.972C361.24 24.972 360.33 25.322 359.742 25.938C359.546 26.134 359.448 26.33 359.448 26.54C359.448 26.862 359.742 27.156 360.092 27.156C360.26 27.156 360.414 27.086 360.596 26.932C361.03 26.498 361.548 26.288 362.122 26.288C363.06 26.288 363.592 26.82 363.592 27.758V28.206H361.646C360.092 28.206 359.112 28.962 359.112 30.166C359.112 31.356 360.078 32.154 361.506 32.154C362.388 32.154 363.116 31.86 363.62 31.328V31.412C363.62 31.832 363.928 32.154 364.348 32.154C364.768 32.154 365.076 31.846 365.076 31.412V27.842C365.076 26.036 364.026 24.972 362.248 24.972ZM361.814 31.02C361.086 31.02 360.61 30.67 360.61 30.11C360.61 29.564 361.03 29.27 361.828 29.27H363.592V29.396C363.592 30.306 362.808 31.02 361.814 31.02ZM370.328 32.154C371.56 32.154 372.54 31.594 373.114 30.74C373.212 30.6 373.24 30.488 373.24 30.362C373.24 29.998 372.946 29.704 372.582 29.704C372.386 29.704 372.232 29.746 372.064 29.942C371.644 30.432 371.098 30.796 370.342 30.796C369.096 30.796 368.186 29.858 368.186 28.556C368.186 27.282 369.11 26.33 370.342 26.33C371.098 26.33 371.658 26.694 372.064 27.198C372.218 27.38 372.386 27.436 372.582 27.436C372.946 27.436 373.24 27.142 373.24 26.764C373.24 26.652 373.212 26.54 373.1 26.372C372.568 25.546 371.532 24.972 370.328 24.972C368.284 24.972 366.688 26.554 366.688 28.556C366.688 30.572 368.284 32.154 370.328 32.154ZM377.916 32.154C379.148 32.154 380.128 31.594 380.702 30.74C380.8 30.6 380.828 30.488 380.828 30.362C380.828 29.998 380.534 29.704 380.17 29.704C379.974 29.704 379.82 29.746 379.652 29.942C379.232 30.432 378.686 30.796 377.93 30.796C376.684 30.796 375.774 29.858 375.774 28.556C375.774 27.282 376.698 26.33 377.93 26.33C378.686 26.33 379.246 26.694 379.652 27.198C379.806 27.38 379.974 27.436 380.17 27.436C380.534 27.436 380.828 27.142 380.828 26.764C380.828 26.652 380.8 26.54 380.688 26.372C380.156 25.546 379.12 24.972 377.916 24.972C375.872 24.972 374.276 26.554 374.276 28.556C374.276 30.572 375.872 32.154 377.916 32.154ZM385.489 24.972C383.459 24.972 381.863 26.54 381.863 28.556C381.863 30.558 383.459 32.14 385.489 32.154C387.533 32.154 389.143 30.558 389.143 28.556C389.143 26.554 387.533 24.972 385.489 24.972ZM385.503 26.316C386.707 26.33 387.631 27.282 387.631 28.57C387.631 29.83 386.707 30.796 385.489 30.796C384.271 30.796 383.361 29.844 383.361 28.57C383.361 27.282 384.271 26.33 385.503 26.316ZM393.769 32.154C395.519 32.154 396.751 30.908 396.751 29.116V25.728C396.751 25.294 396.443 24.972 396.023 24.972C395.589 24.972 395.281 25.294 395.281 25.728V29.228C395.281 30.138 394.651 30.796 393.769 30.796C392.859 30.796 392.215 30.138 392.215 29.228V25.728C392.215 25.294 391.907 24.972 391.487 24.972C391.067 24.972 390.759 25.294 390.759 25.728V29.116C390.759 30.908 391.991 32.154 393.769 32.154ZM402.243 24.972C401.445 24.972 400.759 25.252 400.269 25.728C400.269 25.294 399.961 24.972 399.555 24.972C399.121 24.972 398.813 25.294 398.813 25.728V31.398C398.813 31.832 399.135 32.154 399.555 32.154C399.975 32.154 400.283 31.846 400.283 31.398V27.898C400.283 26.974 400.941 26.302 401.851 26.302C402.747 26.302 403.349 26.946 403.349 27.898V31.398C403.349 31.832 403.657 32.154 404.091 32.154C404.497 32.154 404.819 31.846 404.819 31.398V27.702C404.819 26.036 403.811 24.972 402.243 24.972ZM410.45 30.81C410.324 30.81 410.198 30.824 410.03 30.824C409.092 30.824 408.686 30.474 408.686 29.634V26.4H410.156C410.534 26.4 410.814 26.134 410.814 25.77C410.814 25.406 410.534 25.126 410.156 25.126H408.686V23.922C408.686 23.488 408.364 23.166 407.944 23.166C407.524 23.166 407.202 23.502 407.202 23.922V25.126H406.656C406.292 25.126 405.998 25.406 405.998 25.77C405.998 26.134 406.292 26.4 406.656 26.4H407.202V29.76C407.202 31.314 408.098 32.154 409.736 32.154C410.128 32.154 410.422 32.112 410.66 32.014C410.94 31.916 411.094 31.706 411.094 31.398C411.094 31.048 410.842 30.81 410.45 30.81ZM419.56 24.972C417.53 24.972 415.934 26.54 415.934 28.556C415.934 30.558 417.53 32.14 419.56 32.154C421.604 32.154 423.214 30.558 423.214 28.556C423.214 26.554 421.604 24.972 419.56 24.972ZM419.574 26.316C420.778 26.33 421.702 27.282 421.702 28.57C421.702 29.83 420.778 30.796 419.56 30.796C418.342 30.796 417.432 29.844 417.432 28.57C417.432 27.282 418.342 26.33 419.574 26.316ZM428.273 25.056C427.503 25.056 426.817 25.392 426.355 25.938V25.728C426.355 25.294 426.047 24.972 425.641 24.972C425.207 24.972 424.899 25.294 424.899 25.728V31.398C424.899 31.832 425.221 32.154 425.641 32.154C426.061 32.154 426.369 31.846 426.369 31.398V28.332C426.369 27.226 427.139 26.47 428.259 26.442C428.679 26.414 428.973 26.134 428.973 25.728C428.973 25.336 428.679 25.056 428.273 25.056ZM436.201 32.154C437.573 32.154 438.749 31.44 438.749 30.054C438.749 29.046 438.119 28.5 436.873 27.982L436.215 27.716C435.585 27.464 435.305 27.282 435.305 26.904C435.305 26.456 435.697 26.246 436.243 26.246C436.761 26.246 437.237 26.442 437.601 26.722C437.783 26.862 437.909 26.932 438.063 26.932C438.399 26.932 438.679 26.652 438.679 26.302C438.679 26.12 438.609 25.952 438.455 25.812C437.923 25.294 437.153 24.972 436.271 24.972C434.913 24.972 433.849 25.686 433.849 26.96C433.849 27.996 434.535 28.5 435.641 28.962L436.341 29.256C436.901 29.48 437.307 29.662 437.307 30.11C437.307 30.628 436.803 30.88 436.201 30.88C435.543 30.88 435.025 30.572 434.591 30.166C434.437 30.026 434.283 29.97 434.129 29.97C433.765 29.97 433.471 30.264 433.471 30.614C433.471 30.81 433.541 30.964 433.681 31.09C434.269 31.72 435.137 32.154 436.201 32.154ZM444.028 30.81C443.902 30.81 443.776 30.824 443.608 30.824C442.67 30.824 442.264 30.474 442.264 29.634V26.4H443.734C444.112 26.4 444.392 26.134 444.392 25.77C444.392 25.406 444.112 25.126 443.734 25.126H442.264V23.922C442.264 23.488 441.942 23.166 441.522 23.166C441.102 23.166 440.78 23.502 440.78 23.922V25.126H440.234C439.87 25.126 439.576 25.406 439.576 25.77C439.576 26.134 439.87 26.4 440.234 26.4H440.78V29.76C440.78 31.314 441.676 32.154 443.314 32.154C443.706 32.154 444 32.112 444.238 32.014C444.518 31.916 444.672 31.706 444.672 31.398C444.672 31.048 444.42 30.81 444.028 30.81ZM448.654 24.972C447.646 24.972 446.736 25.322 446.148 25.938C445.952 26.134 445.854 26.33 445.854 26.54C445.854 26.862 446.148 27.156 446.498 27.156C446.666 27.156 446.82 27.086 447.002 26.932C447.436 26.498 447.954 26.288 448.528 26.288C449.466 26.288 449.998 26.82 449.998 27.758V28.206H448.052C446.498 28.206 445.518 28.962 445.518 30.166C445.518 31.356 446.484 32.154 447.912 32.154C448.794 32.154 449.522 31.86 450.026 31.328V31.412C450.026 31.832 450.334 32.154 450.754 32.154C451.174 32.154 451.482 31.846 451.482 31.412V27.842C451.482 26.036 450.432 24.972 448.654 24.972ZM448.22 31.02C447.492 31.02 447.016 30.67 447.016 30.11C447.016 29.564 447.436 29.27 448.234 29.27H449.998V29.396C449.998 30.306 449.214 31.02 448.22 31.02ZM456.902 25.056C456.132 25.056 455.446 25.392 454.984 25.938V25.728C454.984 25.294 454.676 24.972 454.27 24.972C453.836 24.972 453.528 25.294 453.528 25.728V31.398C453.528 31.832 453.85 32.154 454.27 32.154C454.69 32.154 454.998 31.846 454.998 31.398V28.332C454.998 27.226 455.768 26.47 456.888 26.442C457.308 26.414 457.602 26.134 457.602 25.728C457.602 25.336 457.308 25.056 456.902 25.056ZM462.362 30.81C462.236 30.81 462.11 30.824 461.942 30.824C461.004 30.824 460.598 30.474 460.598 29.634V26.4H462.068C462.446 26.4 462.726 26.134 462.726 25.77C462.726 25.406 462.446 25.126 462.068 25.126H460.598V23.922C460.598 23.488 460.276 23.166 459.856 23.166C459.436 23.166 459.114 23.502 459.114 23.922V25.126H458.568C458.204 25.126 457.91 25.406 457.91 25.77C457.91 26.134 458.204 26.4 458.568 26.4H459.114V29.76C459.114 31.314 460.01 32.154 461.648 32.154C462.04 32.154 462.334 32.112 462.572 32.014C462.852 31.916 463.006 31.706 463.006 31.398C463.006 31.048 462.754 30.81 462.362 30.81ZM470.912 24.972C469.904 24.972 468.994 25.322 468.406 25.938C468.21 26.134 468.112 26.33 468.112 26.54C468.112 26.862 468.406 27.156 468.756 27.156C468.924 27.156 469.078 27.086 469.26 26.932C469.694 26.498 470.212 26.288 470.786 26.288C471.724 26.288 472.256 26.82 472.256 27.758V28.206H470.31C468.756 28.206 467.776 28.962 467.776 30.166C467.776 31.356 468.742 32.154 470.17 32.154C471.052 32.154 471.78 31.86 472.284 31.328V31.412C472.284 31.832 472.592 32.154 473.012 32.154C473.432 32.154 473.74 31.846 473.74 31.412V27.842C473.74 26.036 472.69 24.972 470.912 24.972ZM470.478 31.02C469.75 31.02 469.274 30.67 469.274 30.11C469.274 29.564 469.694 29.27 470.492 29.27H472.256V29.396C472.256 30.306 471.472 31.02 470.478 31.02ZM483.294 30.81C483.168 30.81 483.042 30.824 482.874 30.824C481.936 30.824 481.53 30.474 481.53 29.634V26.4H483C483.378 26.4 483.658 26.134 483.658 25.77C483.658 25.406 483.378 25.126 483 25.126H481.53V23.922C481.53 23.488 481.208 23.166 480.788 23.166C480.368 23.166 480.046 23.502 480.046 23.922V25.126H479.5C479.136 25.126 478.842 25.406 478.842 25.77C478.842 26.134 479.136 26.4 479.5 26.4H480.046V29.76C480.046 31.314 480.942 32.154 482.58 32.154C482.972 32.154 483.266 32.112 483.504 32.014C483.784 31.916 483.938 31.706 483.938 31.398C483.938 31.048 483.686 30.81 483.294 30.81ZM488.662 25.056C487.892 25.056 487.206 25.392 486.744 25.938V25.728C486.744 25.294 486.436 24.972 486.03 24.972C485.596 24.972 485.288 25.294 485.288 25.728V31.398C485.288 31.832 485.61 32.154 486.03 32.154C486.45 32.154 486.758 31.846 486.758 31.398V28.332C486.758 27.226 487.528 26.47 488.648 26.442C489.068 26.414 489.362 26.134 489.362 25.728C489.362 25.336 489.068 25.056 488.662 25.056ZM491.28 21.612C490.734 21.612 490.3 22.032 490.3 22.564C490.3 23.096 490.734 23.516 491.28 23.516C491.812 23.516 492.26 23.096 492.26 22.564C492.26 22.032 491.812 21.612 491.28 21.612ZM491.266 32.154C491.686 32.154 492.008 31.832 492.008 31.398V25.728C492.008 25.294 491.7 24.972 491.28 24.972C490.846 24.972 490.538 25.294 490.538 25.728V31.398C490.538 31.832 490.846 32.154 491.266 32.154ZM496.765 24.972C495.757 24.972 494.847 25.322 494.259 25.938C494.063 26.134 493.965 26.33 493.965 26.54C493.965 26.862 494.259 27.156 494.609 27.156C494.777 27.156 494.931 27.086 495.113 26.932C495.547 26.498 496.065 26.288 496.639 26.288C497.577 26.288 498.109 26.82 498.109 27.758V28.206H496.163C494.609 28.206 493.629 28.962 493.629 30.166C493.629 31.356 494.595 32.154 496.023 32.154C496.905 32.154 497.633 31.86 498.137 31.328V31.412C498.137 31.832 498.445 32.154 498.865 32.154C499.285 32.154 499.593 31.846 499.593 31.412V27.842C499.593 26.036 498.543 24.972 496.765 24.972ZM496.331 31.02C495.603 31.02 495.127 30.67 495.127 30.11C495.127 29.564 495.547 29.27 496.345 29.27H498.109V29.396C498.109 30.306 497.325 31.02 496.331 31.02ZM502.381 32.154C502.801 32.154 503.109 31.832 503.109 31.398V22.102C503.109 21.668 502.801 21.346 502.381 21.346C501.947 21.346 501.639 21.668 501.639 22.102V31.398C501.639 31.832 501.961 32.154 502.381 32.154ZM512.743 30.81C512.617 30.81 512.491 30.824 512.323 30.824C511.385 30.824 510.979 30.474 510.979 29.634V26.4H512.449C512.827 26.4 513.107 26.134 513.107 25.77C513.107 25.406 512.827 25.126 512.449 25.126H510.979V23.922C510.979 23.488 510.657 23.166 510.237 23.166C509.817 23.166 509.495 23.502 509.495 23.922V25.126H508.949C508.585 25.126 508.291 25.406 508.291 25.77C508.291 26.134 508.585 26.4 508.949 26.4H509.495V29.76C509.495 31.314 510.391 32.154 512.029 32.154C512.421 32.154 512.715 32.112 512.953 32.014C513.233 31.916 513.387 31.706 513.387 31.398C513.387 31.048 513.135 30.81 512.743 30.81ZM517.792 24.972C515.762 24.972 514.166 26.54 514.166 28.556C514.166 30.558 515.762 32.14 517.792 32.154C519.836 32.154 521.446 30.558 521.446 28.556C521.446 26.554 519.836 24.972 517.792 24.972ZM517.806 26.316C519.01 26.33 519.934 27.282 519.934 28.57C519.934 29.83 519.01 30.796 517.792 30.796C516.574 30.796 515.664 29.844 515.664 28.57C515.664 27.282 516.574 26.33 517.806 26.316ZM529.095 21.346C528.675 21.346 528.353 21.668 528.353 22.102V25.966C527.835 25.35 527.023 24.972 526.057 24.972C524.125 24.972 522.697 26.498 522.697 28.57C522.697 30.642 524.125 32.154 526.057 32.154C527.051 32.154 527.877 31.776 528.381 31.132V31.412C528.381 31.832 528.689 32.154 529.109 32.154C529.515 32.154 529.837 31.846 529.837 31.412V22.102C529.837 21.654 529.515 21.346 529.095 21.346ZM526.309 30.81C525.077 30.81 524.195 29.858 524.195 28.556C524.195 27.268 525.091 26.316 526.309 26.316C527.541 26.316 528.381 27.24 528.381 28.57C528.381 29.9 527.541 30.81 526.309 30.81ZM534.595 24.972C533.587 24.972 532.677 25.322 532.089 25.938C531.893 26.134 531.795 26.33 531.795 26.54C531.795 26.862 532.089 27.156 532.439 27.156C532.607 27.156 532.761 27.086 532.943 26.932C533.377 26.498 533.895 26.288 534.469 26.288C535.407 26.288 535.939 26.82 535.939 27.758V28.206H533.993C532.439 28.206 531.459 28.962 531.459 30.166C531.459 31.356 532.425 32.154 533.853 32.154C534.735 32.154 535.463 31.86 535.967 31.328V31.412C535.967 31.832 536.275 32.154 536.695 32.154C537.115 32.154 537.423 31.846 537.423 31.412V27.842C537.423 26.036 536.373 24.972 534.595 24.972ZM534.161 31.02C533.433 31.02 532.957 30.67 532.957 30.11C532.957 29.564 533.377 29.27 534.175 29.27H535.939V29.396C535.939 30.306 535.155 31.02 534.161 31.02ZM545.041 24.972C544.747 24.972 544.481 25.154 544.369 25.406L542.255 30.026L540.197 25.406C540.085 25.14 539.819 24.972 539.525 24.972C539.133 24.972 538.797 25.308 538.797 25.686C538.797 25.826 538.839 25.924 538.881 26.036L541.429 31.678L541.121 32.336C540.785 33.05 540.337 33.344 539.693 33.344C539.609 33.344 539.525 33.33 539.413 33.33C539.049 33.33 538.741 33.624 538.741 33.974C538.741 34.254 538.909 34.506 539.189 34.59C539.371 34.646 539.609 34.674 539.847 34.674C541.051 34.674 541.835 34.072 542.521 32.644L545.685 26.022C545.741 25.91 545.755 25.798 545.755 25.686C545.755 25.308 545.433 24.972 545.041 24.972ZM553.583 26.932H551.259C550.895 26.932 550.629 27.198 550.629 27.548C550.629 27.898 550.895 28.178 551.259 28.178H553.583C553.947 28.178 554.227 27.898 554.227 27.548C554.227 27.198 553.947 26.932 553.583 26.932ZM566.785 22.606C566.365 22.606 566.043 22.928 566.043 23.362L566.057 29.214L561.381 23.096C561.143 22.774 560.975 22.606 560.639 22.606C560.233 22.606 559.911 22.928 559.911 23.334V31.398C559.911 31.832 560.233 32.154 560.653 32.154C561.073 32.154 561.395 31.832 561.395 31.398V25.532L566.099 31.734C566.295 31.986 566.491 32.154 566.799 32.154C567.219 32.154 567.527 31.832 567.527 31.426V23.362C567.527 22.928 567.205 22.606 566.785 22.606ZM572.876 24.972C570.846 24.972 569.25 26.54 569.25 28.556C569.25 30.558 570.846 32.14 572.876 32.154C574.92 32.154 576.53 30.558 576.53 28.556C576.53 26.554 574.92 24.972 572.876 24.972ZM572.89 26.316C574.094 26.33 575.018 27.282 575.018 28.57C575.018 29.83 574.094 30.796 572.876 30.796C571.658 30.796 570.748 29.844 570.748 28.57C570.748 27.282 571.658 26.33 572.89 26.316ZM585.345 32.154C586.577 32.154 587.557 31.594 588.131 30.74C588.229 30.6 588.257 30.488 588.257 30.362C588.257 29.998 587.963 29.704 587.599 29.704C587.403 29.704 587.249 29.746 587.081 29.942C586.661 30.432 586.115 30.796 585.359 30.796C584.113 30.796 583.203 29.858 583.203 28.556C583.203 27.282 584.127 26.33 585.359 26.33C586.115 26.33 586.675 26.694 587.081 27.198C587.235 27.38 587.403 27.436 587.599 27.436C587.963 27.436 588.257 27.142 588.257 26.764C588.257 26.652 588.229 26.54 588.117 26.372C587.585 25.546 586.549 24.972 585.345 24.972C583.301 24.972 581.705 26.554 581.705 28.556C581.705 30.572 583.301 32.154 585.345 32.154ZM593.238 25.056C592.468 25.056 591.782 25.392 591.32 25.938V25.728C591.32 25.294 591.012 24.972 590.606 24.972C590.172 24.972 589.864 25.294 589.864 25.728V31.398C589.864 31.832 590.186 32.154 590.606 32.154C591.026 32.154 591.334 31.846 591.334 31.398V28.332C591.334 27.226 592.104 26.47 593.224 26.442C593.644 26.414 593.938 26.134 593.938 25.728C593.938 25.336 593.644 25.056 593.238 25.056ZM598.085 24.972C596.083 24.972 594.543 26.54 594.543 28.57C594.543 30.628 596.111 32.154 598.239 32.154C599.093 32.154 599.863 31.902 600.521 31.412C600.787 31.216 600.885 31.048 600.885 30.796C600.885 30.446 600.619 30.18 600.269 30.18C600.143 30.18 600.017 30.236 599.891 30.32C599.429 30.67 598.869 30.852 598.281 30.852C597.063 30.852 596.237 30.152 596.041 29.046H600.437C600.955 29.046 601.277 28.738 601.277 28.234V28.164C601.277 26.316 599.919 24.972 598.085 24.972ZM598.043 26.218C599.079 26.218 599.779 26.904 599.807 27.898H596.069C596.293 26.89 597.049 26.218 598.043 26.218ZM608.925 21.346C608.505 21.346 608.183 21.668 608.183 22.102V25.966C607.665 25.35 606.853 24.972 605.887 24.972C603.955 24.972 602.527 26.498 602.527 28.57C602.527 30.642 603.955 32.154 605.887 32.154C606.881 32.154 607.707 31.776 608.211 31.132V31.412C608.211 31.832 608.519 32.154 608.939 32.154C609.345 32.154 609.667 31.846 609.667 31.412V22.102C609.667 21.654 609.345 21.346 608.925 21.346ZM606.139 30.81C604.907 30.81 604.025 29.858 604.025 28.556C604.025 27.268 604.921 26.316 606.139 26.316C607.371 26.316 608.211 27.24 608.211 28.57C608.211 29.9 607.371 30.81 606.139 30.81ZM612.535 21.612C611.989 21.612 611.555 22.032 611.555 22.564C611.555 23.096 611.989 23.516 612.535 23.516C613.067 23.516 613.515 23.096 613.515 22.564C613.515 22.032 613.067 21.612 612.535 21.612ZM612.521 32.154C612.941 32.154 613.263 31.832 613.263 31.398V25.728C613.263 25.294 612.955 24.972 612.535 24.972C612.101 24.972 611.793 25.294 611.793 25.728V31.398C611.793 31.832 612.101 32.154 612.521 32.154ZM618.973 30.81C618.847 30.81 618.721 30.824 618.553 30.824C617.615 30.824 617.209 30.474 617.209 29.634V26.4H618.679C619.057 26.4 619.337 26.134 619.337 25.77C619.337 25.406 619.057 25.126 618.679 25.126H617.209V23.922C617.209 23.488 616.887 23.166 616.467 23.166C616.047 23.166 615.725 23.502 615.725 23.922V25.126H615.179C614.815 25.126 614.521 25.406 614.521 25.77C614.521 26.134 614.815 26.4 615.179 26.4H615.725V29.76C615.725 31.314 616.621 32.154 618.259 32.154C618.651 32.154 618.945 32.112 619.183 32.014C619.463 31.916 619.617 31.706 619.617 31.398C619.617 31.048 619.365 30.81 618.973 30.81ZM628.097 32.154C629.329 32.154 630.309 31.594 630.883 30.74C630.981 30.6 631.009 30.488 631.009 30.362C631.009 29.998 630.715 29.704 630.351 29.704C630.155 29.704 630.001 29.746 629.833 29.942C629.413 30.432 628.867 30.796 628.111 30.796C626.865 30.796 625.955 29.858 625.955 28.556C625.955 27.282 626.879 26.33 628.111 26.33C628.867 26.33 629.427 26.694 629.833 27.198C629.987 27.38 630.155 27.436 630.351 27.436C630.715 27.436 631.009 27.142 631.009 26.764C631.009 26.652 630.981 26.54 630.869 26.372C630.337 25.546 629.301 24.972 628.097 24.972C626.053 24.972 624.457 26.554 624.457 28.556C624.457 30.572 626.053 32.154 628.097 32.154ZM635.248 24.972C634.24 24.972 633.33 25.322 632.742 25.938C632.546 26.134 632.448 26.33 632.448 26.54C632.448 26.862 632.742 27.156 633.092 27.156C633.26 27.156 633.414 27.086 633.596 26.932C634.03 26.498 634.548 26.288 635.122 26.288C636.06 26.288 636.592 26.82 636.592 27.758V28.206H634.646C633.092 28.206 632.112 28.962 632.112 30.166C632.112 31.356 633.078 32.154 634.506 32.154C635.388 32.154 636.116 31.86 636.62 31.328V31.412C636.62 31.832 636.928 32.154 637.348 32.154C637.768 32.154 638.076 31.846 638.076 31.412V27.842C638.076 26.036 637.026 24.972 635.248 24.972ZM634.814 31.02C634.086 31.02 633.61 30.67 633.61 30.11C633.61 29.564 634.03 29.27 634.828 29.27H636.592V29.396C636.592 30.306 635.808 31.02 634.814 31.02ZM643.496 25.056C642.726 25.056 642.04 25.392 641.578 25.938V25.728C641.578 25.294 641.27 24.972 640.864 24.972C640.43 24.972 640.122 25.294 640.122 25.728V31.398C640.122 31.832 640.444 32.154 640.864 32.154C641.284 32.154 641.592 31.846 641.592 31.398V28.332C641.592 27.226 642.362 26.47 643.482 26.442C643.902 26.414 644.196 26.134 644.196 25.728C644.196 25.336 643.902 25.056 643.496 25.056ZM651.199 21.346C650.779 21.346 650.457 21.668 650.457 22.102V25.966C649.939 25.35 649.127 24.972 648.161 24.972C646.229 24.972 644.801 26.498 644.801 28.57C644.801 30.642 646.229 32.154 648.161 32.154C649.155 32.154 649.981 31.776 650.485 31.132V31.412C650.485 31.832 650.793 32.154 651.213 32.154C651.619 32.154 651.941 31.846 651.941 31.412V22.102C651.941 21.654 651.619 21.346 651.199 21.346ZM648.413 30.81C647.181 30.81 646.299 29.858 646.299 28.556C646.299 27.268 647.195 26.316 648.413 26.316C649.645 26.316 650.485 27.24 650.485 28.57C650.485 29.9 649.645 30.81 648.413 30.81ZM661.365 25.056C660.595 25.056 659.909 25.392 659.447 25.938V25.728C659.447 25.294 659.139 24.972 658.733 24.972C658.299 24.972 657.991 25.294 657.991 25.728V31.398C657.991 31.832 658.313 32.154 658.733 32.154C659.153 32.154 659.461 31.846 659.461 31.398V28.332C659.461 27.226 660.231 26.47 661.351 26.442C661.771 26.414 662.065 26.134 662.065 25.728C662.065 25.336 661.771 25.056 661.365 25.056ZM666.212 24.972C664.21 24.972 662.67 26.54 662.67 28.57C662.67 30.628 664.238 32.154 666.366 32.154C667.22 32.154 667.99 31.902 668.648 31.412C668.914 31.216 669.012 31.048 669.012 30.796C669.012 30.446 668.746 30.18 668.396 30.18C668.27 30.18 668.144 30.236 668.018 30.32C667.556 30.67 666.996 30.852 666.408 30.852C665.19 30.852 664.364 30.152 664.168 29.046H668.564C669.082 29.046 669.404 28.738 669.404 28.234V28.164C669.404 26.316 668.046 24.972 666.212 24.972ZM666.17 26.218C667.206 26.218 667.906 26.904 667.934 27.898H664.196C664.42 26.89 665.176 26.218 666.17 26.218ZM677.066 24.972C676.646 24.972 676.338 25.294 676.338 25.728V25.994C675.834 25.364 675.008 24.972 674.014 24.972C672.082 24.972 670.654 26.498 670.654 28.556C670.654 30.628 672.082 32.154 674.014 32.154C674.98 32.154 675.792 31.776 676.31 31.174V33.932C676.31 34.366 676.632 34.688 677.052 34.688C677.472 34.688 677.794 34.366 677.794 33.932V25.728C677.794 25.294 677.472 24.972 677.066 24.972ZM674.266 30.81C673.048 30.81 672.152 29.858 672.152 28.57C672.152 27.268 673.048 26.316 674.266 26.316C675.498 26.316 676.338 27.226 676.338 28.556C676.338 29.886 675.498 30.81 674.266 30.81ZM682.86 32.154C684.61 32.154 685.842 30.908 685.842 29.116V25.728C685.842 25.294 685.534 24.972 685.114 24.972C684.68 24.972 684.372 25.294 684.372 25.728V29.228C684.372 30.138 683.742 30.796 682.86 30.796C681.95 30.796 681.306 30.138 681.306 29.228V25.728C681.306 25.294 680.998 24.972 680.578 24.972C680.158 24.972 679.85 25.294 679.85 25.728V29.116C679.85 30.908 681.082 32.154 682.86 32.154ZM688.647 21.612C688.101 21.612 687.667 22.032 687.667 22.564C687.667 23.096 688.101 23.516 688.647 23.516C689.179 23.516 689.627 23.096 689.627 22.564C689.627 22.032 689.179 21.612 688.647 21.612ZM688.633 32.154C689.053 32.154 689.375 31.832 689.375 31.398V25.728C689.375 25.294 689.067 24.972 688.647 24.972C688.213 24.972 687.905 25.294 687.905 25.728V31.398C687.905 31.832 688.213 32.154 688.633 32.154ZM694.875 25.056C694.105 25.056 693.419 25.392 692.957 25.938V25.728C692.957 25.294 692.649 24.972 692.243 24.972C691.809 24.972 691.501 25.294 691.501 25.728V31.398C691.501 31.832 691.823 32.154 692.243 32.154C692.663 32.154 692.971 31.846 692.971 31.398V28.332C692.971 27.226 693.741 26.47 694.861 26.442C695.281 26.414 695.575 26.134 695.575 25.728C695.575 25.336 695.281 25.056 694.875 25.056ZM699.722 24.972C697.72 24.972 696.18 26.54 696.18 28.57C696.18 30.628 697.748 32.154 699.876 32.154C700.73 32.154 701.5 31.902 702.158 31.412C702.424 31.216 702.522 31.048 702.522 30.796C702.522 30.446 702.256 30.18 701.906 30.18C701.78 30.18 701.654 30.236 701.528 30.32C701.066 30.67 700.506 30.852 699.918 30.852C698.7 30.852 697.874 30.152 697.678 29.046H702.074C702.592 29.046 702.914 28.738 702.914 28.234V28.164C702.914 26.316 701.556 24.972 699.722 24.972ZM699.68 26.218C700.716 26.218 701.416 26.904 701.444 27.898H697.706C697.93 26.89 698.686 26.218 699.68 26.218ZM710.562 21.346C710.142 21.346 709.82 21.668 709.82 22.102V25.966C709.302 25.35 708.49 24.972 707.524 24.972C705.592 24.972 704.164 26.498 704.164 28.57C704.164 30.642 705.592 32.154 707.524 32.154C708.518 32.154 709.344 31.776 709.848 31.132V31.412C709.848 31.832 710.156 32.154 710.576 32.154C710.982 32.154 711.304 31.846 711.304 31.412V22.102C711.304 21.654 710.982 21.346 710.562 21.346ZM707.776 30.81C706.544 30.81 705.662 29.858 705.662 28.556C705.662 27.268 706.558 26.316 707.776 26.316C709.008 26.316 709.848 27.24 709.848 28.57C709.848 29.9 709.008 30.81 707.776 30.81ZM714.634 29.242C715.054 29.242 715.348 28.906 715.362 28.5L715.488 23.516C715.488 22.97 715.166 22.606 714.634 22.606C714.102 22.606 713.766 22.97 713.78 23.516L713.906 28.5C713.92 28.906 714.214 29.242 714.634 29.242ZM714.648 32.154C715.236 32.154 715.698 31.692 715.698 31.104C715.698 30.516 715.236 30.04 714.648 30.04C714.046 30.04 713.57 30.516 713.57 31.104C713.57 31.692 714.046 32.154 714.648 32.154Z" fill="#888888"/>
</svg>
