<svg viewBox="0 0 184 33" fill="none" xmlns="http://www.w3.org/2000/svg">
<path d="M15.0089 23.7113C15.6445 23.3277 16.4403 23.3277 17.0759 23.7113L20.2462 25.6248C21.7608 26.5389 23.6293 25.181 23.2274 23.4581L22.386 19.8515C22.2173 19.1285 22.463 18.3716 23.0242 17.8855L25.8282 15.4563C27.1654 14.2979 26.4506 12.1014 24.6877 11.9518L21.0007 11.639C20.2616 11.5763 19.6178 11.1096 19.3283 10.4266L17.8838 7.01844C17.1947 5.39239 14.8901 5.39239 14.201 7.01844L12.7565 10.4266C12.467 11.1096 11.8233 11.5763 11.0841 11.639L7.39709 11.9518C5.63423 12.1014 4.91942 14.2979 6.25662 15.4563L9.06066 17.8855C9.62179 18.3716 9.86749 19.1285 9.69882 19.8515L8.85745 23.4581C8.45553 25.181 10.324 26.5389 11.8386 25.6248L15.0089 23.7113Z" fill="#F8A401"/>
<path d="M52.4406 23.7113C53.0762 23.3277 53.8719 23.3277 54.5075 23.7113L57.6778 25.6248C59.1925 26.5389 61.0609 25.181 60.659 23.4581L59.8176 19.8515C59.649 19.1285 59.8947 18.3716 60.4558 17.8855L63.2598 15.4563C64.597 14.2979 63.8822 12.1014 62.1194 11.9518L58.4323 11.639C57.6932 11.5763 57.0495 11.1096 56.76 10.4266L55.3155 7.01844C54.6263 5.39239 52.3218 5.39239 51.6326 7.01844L50.1881 10.4266C49.8986 11.1096 49.2549 11.5763 48.5157 11.639L44.8287 11.9518C43.0659 12.1014 42.3511 14.2979 43.6883 15.4563L46.4923 17.8855C47.0534 18.3716 47.2991 19.1285 47.1305 19.8515L46.2891 23.4581C45.8872 25.181 47.7556 26.5389 49.2703 25.6248L52.4406 23.7113Z" fill="#F8A401"/>
<path d="M89.8732 23.7113C90.5088 23.3277 91.3046 23.3277 91.9401 23.7113L95.1105 25.6248C96.6251 26.5389 98.4935 25.181 98.0916 23.4581L97.2503 19.8515C97.0816 19.1285 97.3273 18.3716 97.8884 17.8855L100.692 15.4563C102.03 14.2979 101.315 12.1014 99.552 11.9518L95.865 11.639C95.1258 11.5763 94.4821 11.1096 94.1926 10.4266L92.7481 7.01844C92.0589 5.39239 89.7544 5.39239 89.0652 7.01844L87.6207 10.4266C87.3313 11.1096 86.6875 11.5763 85.9484 11.639L82.2613 11.9518C80.4985 12.1014 79.7837 14.2979 81.1209 15.4563L83.9249 17.8855C84.486 18.3716 84.7317 19.1285 84.5631 19.8515L83.7217 23.4581C83.3198 25.181 85.1882 26.5389 86.7029 25.6248L89.8732 23.7113Z" fill="#F8A401"/>
<path d="M127.305 23.7113C127.94 23.3277 128.736 23.3277 129.372 23.7113L132.542 25.6248C134.057 26.5389 135.925 25.181 135.523 23.4581L134.682 19.8515C134.513 19.1285 134.759 18.3716 135.32 17.8855L138.124 15.4563C139.461 14.2979 138.746 12.1014 136.984 11.9518L133.297 11.639C132.557 11.5763 131.914 11.1096 131.624 10.4266L130.18 7.01844C129.491 5.39239 127.186 5.39239 126.497 7.01844L125.052 10.4266C124.763 11.1096 124.119 11.5763 123.38 11.639L119.693 11.9518C117.93 12.1014 117.215 14.2979 118.553 15.4563L121.357 17.8855C121.918 18.3716 122.163 19.1285 121.995 19.8515L121.153 23.4581C120.751 25.181 122.62 26.5389 124.135 25.6248L127.305 23.7113Z" fill="#F8A401"/>
<path d="M164.737 23.7113C165.373 23.3277 166.169 23.3277 166.804 23.7113L169.975 25.6248C171.489 26.5389 173.358 25.181 172.956 23.4581L172.115 19.8515C171.946 19.1285 172.192 18.3716 172.753 17.8855L175.557 15.4563C176.894 14.2979 176.179 12.1014 174.416 11.9518L170.729 11.639C169.99 11.5763 169.346 11.1096 169.057 10.4266L167.612 7.01844C166.923 5.39239 164.619 5.39239 163.929 7.01844L162.485 10.4266C162.196 11.1096 161.552 11.5763 160.813 11.639L157.126 11.9518C155.363 12.1014 154.648 14.2979 155.985 15.4563L158.789 17.8855C159.35 18.3716 159.596 19.1285 159.427 19.8515L158.586 23.4581C158.184 25.181 160.053 26.5389 161.567 25.6248L164.737 23.7113Z" fill="#F8A401"/>
</svg>
