<svg width="40" height="40" viewBox="0 0 40 40" fill="none" xmlns="http://www.w3.org/2000/svg">
<rect x="0.5" y="0.5" width="39" height="39" rx="3.5" fill="white"/>
<path d="M23.75 11.25H16.25C15.5207 11.25 14.8212 11.5397 14.3055 12.0555C13.7898 12.5712 13.5 13.2706 13.5 14V28C13.499 28.1377 13.5359 28.2729 13.6067 28.391C13.6774 28.5091 13.7793 28.6054 13.9012 28.6695C14.023 28.7335 14.1602 28.7627 14.2975 28.754C14.4349 28.7453 14.5672 28.6989 14.68 28.62L20 24.91L25.32 28.62C25.4467 28.7063 25.5967 28.7516 25.75 28.75C25.871 28.7486 25.9903 28.7213 26.1 28.67C26.2203 28.6041 26.3208 28.5072 26.3911 28.3894C26.4615 28.2716 26.499 28.1372 26.5 28V14C26.5 13.2706 26.2103 12.5712 25.6945 12.0555C25.1788 11.5397 24.4793 11.25 23.75 11.25Z" fill="#E6D6BD"/>
<rect x="0.5" y="0.5" width="39" height="39" rx="3.5" stroke="#E6D6BD"/>
</svg>
