<svg width="21" height="20" viewBox="0 0 21 20" fill="none" xmlns="http://www.w3.org/2000/svg">
<path d="M18 15.8334V16.6667H3V15.8334L4.66667 14.1667V9.16675C4.66667 6.58341 6.35833 4.30841 8.83333 3.57508V3.33341C8.83333 2.89139 9.00893 2.46746 9.32149 2.1549C9.63405 1.84234 10.058 1.66675 10.5 1.66675C10.942 1.66675 11.366 1.84234 11.6785 2.1549C11.9911 2.46746 12.1667 2.89139 12.1667 3.33341V3.57508C14.6417 4.30841 16.3333 6.58341 16.3333 9.16675V14.1667L18 15.8334ZM12.1667 17.5001C12.1667 17.9421 11.9911 18.366 11.6785 18.6786C11.366 18.9912 10.942 19.1667 10.5 19.1667C10.058 19.1667 9.63405 18.9912 9.32149 18.6786C9.00893 18.366 8.83333 17.9421 8.83333 17.5001" fill="white"/>
</svg>
